<svg width="17" height="17" viewBox="0 0 17 17" fill="none" xmlns="http://www.w3.org/2000/svg">
  <g style="mix-blend-mode:multiply">
    <path d="M8.5 16.3281C7.41146 16.3281 6.38542 16.1198 5.42188 15.7031C4.46354 15.2865 3.61719 14.7109 2.88281 13.9766C2.14844 13.2422 1.57292 12.3958 1.15625 11.4375C0.739583 10.474 0.53125 9.44792 0.53125 8.35938C0.53125 7.27083 0.739583 6.2474 1.15625 5.28906C1.57292 4.32552 2.14583 3.47656 2.875 2.74219C3.60938 2.00781 4.45573 1.43229 5.41406 1.01562C6.3776 0.598958 7.40365 0.390625 8.49219 0.390625C9.58073 0.390625 10.6068 0.598958 11.5703 1.01562C12.5339 1.43229 13.3828 2.00781 14.1172 2.74219C14.8516 3.47656 15.4271 4.32552 15.8438 5.28906C16.2604 6.2474 16.4688 7.27083 16.4688 8.35938C16.4688 9.44792 16.2604 10.474 15.8438 11.4375C15.4271 12.3958 14.8516 13.2422 14.1172 13.9766C13.3828 14.7109 12.5339 15.2865 11.5703 15.7031C10.612 16.1198 9.58854 16.3281 8.5 16.3281ZM8.5 15.1406C9.09375 15.1406 9.68229 15.0599 10.2656 14.8984C10.8542 14.7422 11.4062 14.513 11.9219 14.2109C12.4375 13.9141 12.8958 13.5547 13.2969 13.1328C13.0156 12.6849 12.6302 12.3047 12.1406 11.9922C11.6562 11.6745 11.1016 11.4349 10.4766 11.2734C9.85677 11.1068 9.19792 11.0234 8.5 11.0234C7.79167 11.0234 7.125 11.1068 6.5 11.2734C5.875 11.4401 5.32031 11.6823 4.83594 12C4.35677 12.3125 3.97656 12.6901 3.69531 13.1328C4.09635 13.5547 4.55469 13.9141 5.07031 14.2109C5.59115 14.513 6.14323 14.7422 6.72656 14.8984C7.3099 15.0599 7.90104 15.1406 8.5 15.1406ZM8.5 9.69531C9 9.70052 9.45052 9.57552 9.85156 9.32031C10.2578 9.0599 10.5807 8.70573 10.8203 8.25781C11.0599 7.8099 11.1797 7.30729 11.1797 6.75C11.1797 6.22396 11.0599 5.74219 10.8203 5.30469C10.5807 4.86719 10.2578 4.51823 9.85156 4.25781C9.44531 3.99219 8.99479 3.85938 8.5 3.85938C8 3.85938 7.54688 3.99219 7.14062 4.25781C6.73438 4.51823 6.41146 4.86719 6.17188 5.30469C5.93229 5.74219 5.8151 6.22396 5.82031 6.75C5.82031 7.30729 5.9375 7.80729 6.17188 8.25C6.41146 8.69271 6.73177 9.04427 7.13281 9.30469C7.53906 9.5599 7.99479 9.6901 8.5 9.69531Z" fill="#3F3C43" fill-opacity="0.6"/>
  </g>
</svg>

