<?xml version="1.0" encoding="iso-8859-1"?>
<!-- Generator: Adobe Illustrator 26.0.1, SVG Export Plug-In . SVG Version: 6.00 Build 0)  -->
<svg version="1.1" baseProfile="basic" id="Layer_1"
	 xmlns="http://www.w3.org/2000/svg" xmlns:xlink="http://www.w3.org/1999/xlink" x="0px" y="0px" viewBox="0 0 64 64"
	 xml:space="preserve">
<path d="M17,21h-7c-1.104,0-2-0.896-2-2s0.896-2,2-2h7c1.104,0,2,0.896,2,2S18.104,21,17,21z"/>
<path d="M54,21H28c-1.104,0-2-0.896-2-2s0.896-2,2-2h26c1.104,0,2,0.896,2,2S55.104,21,54,21z"/>
<path d="M37,34H10c-1.104,0-2-0.896-2-2s0.896-2,2-2h27c1.104,0,2,0.896,2,2S38.104,34,37,34z"/>
<path d="M54,34h-7c-1.104,0-2-0.896-2-2s0.896-2,2-2h7c1.104,0,2,0.896,2,2S55.104,34,54,34z"/>
<path d="M20,47H10c-1.104,0-2-0.896-2-2s0.896-2,2-2h10c1.104,0,2,0.896,2,2S21.104,47,20,47z"/>
<path d="M54,47H31c-1.104,0-2-0.896-2-2s0.896-2,2-2h23c1.104,0,2,0.896,2,2S55.104,47,54,47z"/>
<path d="M26,52c-3.859,0-7-3.14-7-7s3.141-7,7-7s7,3.14,7,7S29.859,52,26,52z M26,42c-1.654,0-3,1.346-3,3s1.346,3,3,3s3-1.346,3-3
	S27.654,42,26,42z"/>
<path d="M42,39c-3.859,0-7-3.14-7-7s3.141-7,7-7s7,3.14,7,7S45.859,39,42,39z M42,29c-1.654,0-3,1.346-3,3s1.346,3,3,3s3-1.346,3-3
	S43.654,29,42,29z"/>
<path d="M22,26c-3.859,0-7-3.14-7-7s3.141-7,7-7s7,3.14,7,7S25.859,26,22,26z M22,16c-1.654,0-3,1.346-3,3s1.346,3,3,3s3-1.346,3-3
	S23.654,16,22,16z"/>
</svg>